<svg xmlns="http://www.w3.org/2000/svg" viewBox="0 0 1200 800" width="1200" height="800">
  <defs>
    <linearGradient id="rain-sky" x1="0%" y1="0%" x2="0%" y2="100%">
      <stop offset="0%" stop-color="#4a5568"/>
      <stop offset="50%" stop-color="#606c88"/>
      <stop offset="100%" stop-color="#718096"/>
    </linearGradient>
  </defs>
  <!-- 阴天 -->
  <rect width="1200" height="800" fill="url(#rain-sky)"/>
  <!-- 厚云层 -->
  <g fill="#5a6678" opacity="0.8">
    <ellipse cx="200" cy="80" rx="200" ry="60"/>
    <ellipse cx="500" cy="60" rx="250" ry="70"/>
    <ellipse cx="800" cy="70" rx="200" ry="55"/>
    <ellipse cx="1100" cy="80" rx="180" ry="60"/>
    <ellipse cx="350" cy="120" rx="180" ry="50"/>
    <ellipse cx="700" cy="110" rx="220" ry="55"/>
    <ellipse cx="1000" cy="120" rx="200" ry="50"/>
  </g>
  <!-- 校门远景（雨中朦胧） -->
  <g opacity="0.4">
    <rect x="400" y="350" width="400" height="200" fill="#8a8a8a" rx="5"/>
    <rect x="450" y="300" width="30" height="250" fill="#999"/>
    <rect x="720" y="300" width="30" height="250" fill="#999"/>
  </g>
  <!-- 地面积水 -->
  <rect x="0" y="550" width="1200" height="250" fill="#5a6878"/>
  <g opacity="0.15" fill="#8aa0b8">
    <ellipse cx="200" cy="600" rx="100" ry="10"/>
    <ellipse cx="500" cy="620" rx="120" ry="12"/>
    <ellipse cx="800" cy="610" rx="90" ry="8"/>
    <ellipse cx="1050" cy="630" rx="110" ry="10"/>
  </g>
  <!-- 雨滴 -->
  <g stroke="#a0b8c8" stroke-width="1.5" opacity="0.4">
    <line x1="100" y1="100" x2="95" y2="160"/>
    <line x1="200" y1="50" x2="195" y2="110"/>
    <line x1="300" y1="120" x2="295" y2="180"/>
    <line x1="400" y1="80" x2="395" y2="140"/>
    <line x1="500" y1="130" x2="495" y2="190"/>
    <line x1="600" y1="60" x2="595" y2="120"/>
    <line x1="700" y1="100" x2="695" y2="160"/>
    <line x1="800" y1="70" x2="795" y2="130"/>
    <line x1="900" y1="110" x2="895" y2="170"/>
    <line x1="1000" y1="90" x2="995" y2="150"/>
    <line x1="1100" y1="120" x2="1095" y2="180"/>
    <line x1="150" y1="200" x2="145" y2="260"/>
    <line x1="250" y1="180" x2="245" y2="240"/>
    <line x1="350" y1="220" x2="345" y2="280"/>
    <line x1="450" y1="190" x2="445" y2="250"/>
    <line x1="550" y1="230" x2="545" y2="290"/>
    <line x1="650" y1="200" x2="645" y2="260"/>
    <line x1="750" y1="210" x2="745" y2="270"/>
    <line x1="850" y1="190" x2="845" y2="250"/>
    <line x1="950" y1="220" x2="945" y2="280"/>
    <line x1="1050" y1="200" x2="1045" y2="260"/>
    <line x1="80" y1="300" x2="75" y2="360"/>
    <line x1="180" y1="320" x2="175" y2="380"/>
    <line x1="330" y1="300" x2="325" y2="360"/>
    <line x1="480" y1="330" x2="475" y2="390"/>
    <line x1="620" y1="310" x2="615" y2="370"/>
    <line x1="770" y1="300" x2="765" y2="360"/>
    <line x1="880" y1="320" x2="875" y2="380"/>
    <line x1="1020" y1="310" x2="1015" y2="370"/>
    <line x1="1150" y1="300" x2="1145" y2="360"/>
    <line x1="120" y1="400" x2="115" y2="460"/>
    <line x1="270" y1="420" x2="265" y2="480"/>
    <line x1="420" y1="400" x2="415" y2="460"/>
    <line x1="570" y1="430" x2="565" y2="490"/>
    <line x1="710" y1="410" x2="705" y2="470"/>
    <line x1="860" y1="400" x2="855" y2="460"/>
    <line x1="990" y1="420" x2="985" y2="480"/>
    <line x1="1130" y1="410" x2="1125" y2="470"/>
  </g>
  <!-- 树的剪影（雨中） -->
  <g opacity="0.3" fill="#3a4a58">
    <ellipse cx="100" cy="450" rx="60" ry="60"/>
    <rect x="95" y="490" width="12" height="70"/>
    <ellipse cx="1100" cy="460" rx="55" ry="55"/>
    <rect x="1095" y="500" width="12" height="60"/>
  </g>
</svg>
